<?xml version="1.0" encoding="UTF-8"?>
<!DOCTYPE svg PUBLIC "-//W3C//DTD SVG 1.1//EN" "http://www.w3.org/Graphics/SVG/1.1/DTD/svg11.dtd">
<svg xmlns="http://www.w3.org/2000/svg" version="1.1" width="120px" height="120px" style="shape-rendering:geometricPrecision; text-rendering:geometricPrecision; image-rendering:optimizeQuality; fill-rule:evenodd; clip-rule:evenodd" xmlns:xlink="http://www.w3.org/1999/xlink">
<g><path style="opacity:0.873" fill="#fbfdf8" d="M 48.5,-0.5 C 56.1667,-0.5 63.8333,-0.5 71.5,-0.5C 95.8799,5.54619 111.88,20.5462 119.5,44.5C 119.5,55.1667 119.5,65.8333 119.5,76.5C 113.085,97.249 99.7517,111.582 79.5,119.5C 66.5,119.5 53.5,119.5 40.5,119.5C 18.4207,110.668 4.75402,94.6685 -0.5,71.5C -0.5,64.1667 -0.5,56.8333 -0.5,49.5C 5.72719,22.9394 22.0605,6.27272 48.5,-0.5 Z"/></g>
<g><path style="opacity:1" fill="#8bc53e" d="M 4.5,71.5 C 3.74032,65.1961 3.40699,58.8627 3.5,52.5C 8.36345,26.4684 23.6968,10.3017 49.5,4C 81.13,1.89441 102.297,15.7277 113,45.5C 118.412,76.6786 106.912,99.0119 78.5,112.5C 58.155,119.585 39.4883,116.418 22.5,103C 13.2255,94.3139 7.22554,83.8139 4.5,71.5 Z"/></g>
<g><path style="opacity:1" fill="#f9e889" d="M 75.5,109.5 C 73.139,109.674 70.8056,110.007 68.5,110.5C 68.5,107.5 68.5,104.5 68.5,101.5C 70.185,95.7961 72.685,90.4627 76,85.5C 81.6712,78.9964 87.5045,72.663 93.5,66.5C 95.2294,65.7638 96.2294,64.4305 96.5,62.5C 102.306,56.0977 101.639,50.2644 94.5,45C 87.0506,43.0232 80.0506,40.1898 73.5,36.5C 70.4718,31.9061 66.1385,30.2395 60.5,31.5C 46.8266,29.4273 35.3266,33.4273 26,43.5C 24.0728,46.9481 22.7394,50.6148 22,54.5C 21.7777,65.9937 19.9444,77.1603 16.5,88C 15.6683,88.6877 15.0016,88.521 14.5,87.5C -0.818203,55.2631 6.84846,30.0964 37.5,12C 57.975,4.02979 76.6416,7.02979 93.5,21C 111.476,38.535 115.642,59.035 106,82.5C 99.3835,95.6224 89.2169,104.622 75.5,109.5 Z"/></g>
<g><path style="opacity:1" fill="#2d9241" d="M 60.5,31.5 C 66.1385,30.2395 70.4718,31.9061 73.5,36.5C 68.6042,35.7663 64.2708,34.0996 60.5,31.5 Z"/></g>
<g><path style="opacity:1" fill="#fefbec" d="M 60.5,10.5 C 81.5064,12.6468 96.6731,23.3134 106,42.5C 108.224,48.7318 108.724,55.0651 107.5,61.5C 105.082,49.0632 100.249,37.7298 93,27.5C 90.4634,24.628 87.6301,22.128 84.5,20C 76.2725,16.8065 68.2725,13.6398 60.5,10.5 Z"/></g>
<g><path style="opacity:1" fill="#ecf0e6" d="M 48.5,36.5 C 57.8537,36.6813 62.0204,41.348 61,50.5C 54.5318,59.7669 48.1985,59.7669 42,50.5C 40.6694,44.1632 42.8361,39.4965 48.5,36.5 Z"/></g>
<g><path style="opacity:1" fill="#545557" d="M 47.5,40.5 C 54.6976,39.5442 58.1976,42.5442 58,49.5C 54.7211,55.0912 50.7211,55.7579 46,51.5C 43.6892,47.3741 44.1892,43.7075 47.5,40.5 Z"/></g>
<g><path style="opacity:1" fill="#f3f9eb" d="M 85.5,55.5 C 86.8333,55.5 88.1667,55.5 89.5,55.5C 89.7778,57.3464 89.1112,58.6798 87.5,59.5C 85.8888,58.6798 85.2222,57.3464 85.5,55.5 Z"/></g>
<g><path style="opacity:1" fill="#c7e3a1" d="M 3.5,52.5 C 3.40699,58.8627 3.74032,65.1961 4.5,71.5C 3.01556,67.9457 2.3489,64.1123 2.5,60C 2.50291,57.3097 2.83625,54.8097 3.5,52.5 Z"/></g>
<g><path style="opacity:1" fill="#708e4f" d="M 96.5,62.5 C 96.2294,64.4305 95.2294,65.7638 93.5,66.5C 89.5738,68.031 85.5738,69.3643 81.5,70.5C 81.1583,69.6618 80.4916,69.3284 79.5,69.5C 85.3551,67.7666 91.0217,65.4333 96.5,62.5 Z"/></g>
<g><path style="opacity:1" fill="#5f6659" d="M 79.5,69.5 C 80.4916,69.3284 81.1583,69.6618 81.5,70.5C 74.3035,73.476 67.3035,73.1426 60.5,69.5C 60.8333,69.1667 61.1667,68.8333 61.5,68.5C 67.3681,70.7714 73.3681,71.1048 79.5,69.5 Z"/></g>
<g><path style="opacity:1" fill="#bdd55f" d="M 68.5,101.5 C 68.5,104.5 68.5,107.5 68.5,110.5C 70.8056,110.007 73.139,109.674 75.5,109.5C 73.1617,111.04 70.4951,111.706 67.5,111.5C 67.1872,107.958 67.5206,104.625 68.5,101.5 Z"/></g>
</svg>
