<?xml version="1.0" encoding="UTF-8"?>
<!DOCTYPE svg PUBLIC "-//W3C//DTD SVG 1.1//EN" "http://www.w3.org/Graphics/SVG/1.1/DTD/svg11.dtd">
<svg xmlns="http://www.w3.org/2000/svg" version="1.1" width="120px" height="120px" style="shape-rendering:geometricPrecision; text-rendering:geometricPrecision; image-rendering:optimizeQuality; fill-rule:evenodd; clip-rule:evenodd" xmlns:xlink="http://www.w3.org/1999/xlink">
<g><path style="opacity:0.965" fill="#fafafa" d="M 48.5,-0.5 C 56.1667,-0.5 63.8333,-0.5 71.5,-0.5C 77.1871,1.16406 82.8538,3.16406 88.5,5.5C 90.6626,7.0828 92.9959,8.41613 95.5,9.5C 98.271,12.3918 101.271,15.0584 104.5,17.5C 105.167,18.1667 105.833,18.8333 106.5,19.5C 108.344,23.1916 110.677,26.5249 113.5,29.5C 115.52,34.5758 117.52,39.5758 119.5,44.5C 119.5,55.1667 119.5,65.8333 119.5,76.5C 117.52,81.4242 115.52,86.4242 113.5,91.5C 112.5,91.8333 111.833,92.5 111.5,93.5C 111.5,93.8333 111.5,94.1667 111.5,94.5C 110.833,94.5 110.5,94.8333 110.5,95.5C 110.5,95.8333 110.5,96.1667 110.5,96.5C 109.833,96.5 109.5,96.8333 109.5,97.5C 108.833,97.5 108.5,97.8333 108.5,98.5C 107.833,98.5 107.5,98.8333 107.5,99.5C 106.662,99.8417 106.328,100.508 106.5,101.5C 105.833,101.5 105.5,101.833 105.5,102.5C 104.167,103.167 103.167,104.167 102.5,105.5C 101.833,105.5 101.5,105.833 101.5,106.5C 99.246,107.124 97.5794,108.457 96.5,110.5C 95.8333,110.5 95.5,110.833 95.5,111.5C 95.1667,111.5 94.8333,111.5 94.5,111.5C 93.8333,111.5 93.5,111.833 93.5,112.5C 92.2905,112.932 91.2905,113.599 90.5,114.5C 86.6456,115.93 82.9789,117.597 79.5,119.5C 66.5,119.5 53.5,119.5 40.5,119.5C 37.0211,117.597 33.3544,115.93 29.5,114.5C 25.5238,111.531 21.5238,108.531 17.5,105.5C 16.8333,104.167 15.8333,103.167 14.5,102.5C 14.5,101.833 14.1667,101.5 13.5,101.5C 11.2181,97.2229 8.55146,93.2229 5.5,89.5C 3.26875,83.473 1.26875,77.473 -0.5,71.5C -0.5,64.1667 -0.5,56.8333 -0.5,49.5C 1.26875,43.527 3.26875,37.527 5.5,31.5C 11.8333,20.5 20.5,11.8333 31.5,5.5C 37.1462,3.16406 42.8129,1.16406 48.5,-0.5 Z"/></g>
<g><path style="opacity:0.004" fill="#000000" d="M 31.5,5.5 C 20.5,11.8333 11.8333,20.5 5.5,31.5C 5.5,22.8333 5.5,14.1667 5.5,5.5C 14.1667,5.5 22.8333,5.5 31.5,5.5 Z"/></g>
<g><path style="opacity:0.004" fill="#000000" d="M 88.5,5.5 C 96.8333,5.5 105.167,5.5 113.5,5.5C 113.126,9.3358 113.126,13.3358 113.5,17.5C 110.5,17.5 107.5,17.5 104.5,17.5C 101.271,15.0584 98.271,12.3918 95.5,9.5C 92.9959,8.41613 90.6626,7.0828 88.5,5.5 Z"/></g>
<g><path style="opacity:1" fill="#1a1b1e" d="M 51.5,5.5 C 83.9326,4.29127 104.433,19.2913 113,50.5C 114.375,58.8572 113.375,66.8572 110,74.5C 100.957,85.1581 91.9565,85.1581 83,74.5C 82.0266,72.6079 81.3599,70.6079 81,68.5C 80.6667,63.5 80.3333,58.5 80,53.5C 75.5845,61.3333 70.9178,68.9999 66,76.5C 59.8438,84.7647 54.5105,84.4314 50,75.5C 49.6667,68.5 49.3333,61.5 49,54.5C 41.6979,66.633 34.1979,78.633 26.5,90.5C 40.5688,105.216 57.2355,109.049 76.5,102C 81.5064,99.4987 86.1731,96.4987 90.5,93C 97.5799,92.479 99.2466,95.3124 95.5,101.5C 70.9935,120.301 46.6601,120.134 22.5,101C 3.4614,79.5228 0.628068,56.0228 14,30.5C 23.2043,17.1133 35.7043,8.78001 51.5,5.5 Z"/></g>
<g><path style="opacity:1" fill="#fafafa" d="M 50.5,15.5 C 77.0635,13.8485 94.5635,25.5151 103,50.5C 103.667,55.8333 103.667,61.1667 103,66.5C 101.226,70.9727 98.0598,72.8061 93.5,72C 93,71.5 92.5,71 92,70.5C 90.7331,62.9376 90.0664,55.2709 90,47.5C 88.3285,41.4932 84.4951,39.3265 78.5,41C 71.2375,49.0094 65.0708,57.8428 60,67.5C 59.6667,58.5 59.3333,49.5 59,40.5C 54.7683,33.8702 50.4349,33.8702 46,40.5C 37.5,54.1667 29,67.8333 20.5,81.5C 9.83864,55.6553 16.172,35.1553 39.5,20C 43.307,18.5716 46.9736,17.0716 50.5,15.5 Z"/></g>
<g><path style="opacity:0.004" fill="#000000" d="M 113.5,29.5 C 110.677,26.5249 108.344,23.1916 106.5,19.5C 109.011,19.3012 111.178,18.9679 113,18.5C 113.499,22.1516 113.665,25.8183 113.5,29.5 Z"/></g>
<g><path style="opacity:0.004" fill="#000000" d="M 5.5,89.5 C 8.55146,93.2229 11.2181,97.2229 13.5,101.5C 10.8333,101.5 8.16667,101.5 5.5,101.5C 5.5,97.5 5.5,93.5 5.5,89.5 Z"/></g>
<g><path style="opacity:0.004" fill="#000000" d="M 113.5,91.5 C 113.5,92.8333 113.5,94.1667 113.5,95.5C 112.5,95.5 111.5,95.5 110.5,95.5C 110.5,94.8333 110.833,94.5 111.5,94.5C 112.833,94.1667 112.833,93.8333 111.5,93.5C 111.833,92.5 112.5,91.8333 113.5,91.5 Z"/></g>
<g><path style="opacity:0.004" fill="#000000" d="M 110.5,96.5 C 111.675,96.281 112.675,96.6143 113.5,97.5C 111.955,98.4519 110.288,98.7852 108.5,98.5C 108.5,97.8333 108.833,97.5 109.5,97.5C 110.167,97.5 110.5,97.1667 110.5,96.5 Z"/></g>
<g><path style="opacity:0.004" fill="#000000" d="M 107.5,99.5 C 109.604,99.2011 111.604,99.5344 113.5,100.5C 111.257,101.474 108.924,101.808 106.5,101.5C 106.328,100.508 106.662,99.8417 107.5,99.5 Z"/></g>
<g><path style="opacity:0.005" fill="#000000" d="M 14.5,102.5 C 15.8333,103.167 16.8333,104.167 17.5,105.5C 13.5,105.5 9.5,105.5 5.5,105.5C 5.5,104.5 5.5,103.5 5.5,102.5C 8.5,102.5 11.5,102.5 14.5,102.5 Z"/></g>
<g><path style="opacity:0.004" fill="#000000" d="M 105.5,102.5 C 108.062,103.371 110.728,103.371 113.5,102.5C 113.5,103.5 113.5,104.5 113.5,105.5C 109.833,105.5 106.167,105.5 102.5,105.5C 103.167,104.167 104.167,103.167 105.5,102.5 Z"/></g>
<g><path style="opacity:0.004" fill="#000000" d="M 17.5,105.5 C 21.5238,108.531 25.5238,111.531 29.5,114.5C 21.7304,114.608 13.7304,114.942 5.5,115.5C 5.5,112.5 5.5,109.5 5.5,106.5C 9.70159,106.817 13.7016,106.483 17.5,105.5 Z"/></g>
<g><path style="opacity:0.004" fill="#000000" d="M 101.5,106.5 C 105.5,106.5 109.5,106.5 113.5,106.5C 113.884,108.665 113.217,110.332 111.5,111.5C 106.332,111.349 101.332,111.015 96.5,110.5C 97.5794,108.457 99.246,107.124 101.5,106.5 Z"/></g>
<g><path style="opacity:0.004" fill="#000000" d="M 94.5,111.5 C 94.8333,111.5 95.1667,111.5 95.5,111.5C 101.346,112.167 107.346,112.833 113.5,113.5C 105.862,114.497 98.1955,114.831 90.5,114.5C 91.2905,113.599 92.2905,112.932 93.5,112.5C 94.1667,112.5 94.5,112.167 94.5,111.5 Z"/></g>
</svg>
