<?xml version="1.0" encoding="UTF-8"?>
<!DOCTYPE svg PUBLIC "-//W3C//DTD SVG 1.1//EN" "http://www.w3.org/Graphics/SVG/1.1/DTD/svg11.dtd">
<svg xmlns="http://www.w3.org/2000/svg" version="1.1" width="120px" height="120px" style="shape-rendering:geometricPrecision; text-rendering:geometricPrecision; image-rendering:optimizeQuality; fill-rule:evenodd; clip-rule:evenodd" xmlns:xlink="http://www.w3.org/1999/xlink">
<g><path style="opacity:0.969" fill="#fbfdfe" d="M 48.5,-0.5 C 56.1667,-0.5 63.8333,-0.5 71.5,-0.5C 95.8799,5.54619 111.88,20.5462 119.5,44.5C 119.5,55.1667 119.5,65.8333 119.5,76.5C 113.085,97.249 99.7517,111.582 79.5,119.5C 66.5,119.5 53.5,119.5 40.5,119.5C 18.4207,110.668 4.75402,94.6685 -0.5,71.5C -0.5,64.1667 -0.5,56.8333 -0.5,49.5C 5.72719,22.9394 22.0605,6.27272 48.5,-0.5 Z"/></g>
<g><path style="opacity:1" fill="#1cb1cf" d="M 58.5,5.5 C 65.7163,8.55528 72.7163,12.0553 79.5,16C 74.579,18.5894 69.579,21.0894 64.5,23.5C 61.1667,20.8333 57.8333,20.8333 54.5,23.5C 49.9534,21.0598 45.2867,18.8932 40.5,17C 39.1667,16.3333 39.1667,15.6667 40.5,15C 46.865,12.2863 52.865,9.11968 58.5,5.5 Z"/></g>
<g><path style="opacity:1" fill="#16b8da" d="M 54.5,34.5 C 52.5328,34.7394 50.6995,34.4061 49,33.5C 43.2488,34.3104 37.4155,34.8104 31.5,35C 33.1412,36.129 34.1412,37.629 34.5,39.5C 32.7162,39.1075 31.0495,38.4408 29.5,37.5C 29.1583,36.6618 28.4916,36.3284 27.5,36.5C 22.3489,34.4236 17.3489,32.0903 12.5,29.5C 17.3858,26.4725 22.5525,23.8059 28,21.5C 37.0173,25.7598 45.8506,30.0931 54.5,34.5 Z"/></g>
<g><path style="opacity:1" fill="#01a4c2" d="M 12.5,29.5 C 17.3489,32.0903 22.3489,34.4236 27.5,36.5C 27.5,43.5 27.5,50.5 27.5,57.5C 27.1667,57.5 26.8333,57.5 26.5,57.5C 26.4197,52.142 26.4197,46.4754 26.5,40.5C 22.4295,40.7662 18.4295,40.4328 14.5,39.5C 13.8319,37.0312 13.1653,34.6979 12.5,32.5C 12.5,31.5 12.5,30.5 12.5,29.5 Z"/></g>
<g><path style="opacity:1" fill="#11b1cf" d="M 54.5,34.5 C 57.5889,35.7389 60.5889,37.2389 63.5,39C 58.8864,41.8904 54.0531,44.3904 49,46.5C 44.0144,44.2557 39.181,41.9223 34.5,39.5C 34.1412,37.629 33.1412,36.129 31.5,35C 37.4155,34.8104 43.2488,34.3104 49,33.5C 50.6995,34.4061 52.5328,34.7394 54.5,34.5 Z"/></g>
<g><path style="opacity:1" fill="#c3eaf0" d="M 27.5,36.5 C 28.4916,36.3284 29.1583,36.6618 29.5,37.5C 28.8333,44.1667 28.1667,50.8333 27.5,57.5C 27.5,50.5 27.5,43.5 27.5,36.5 Z"/></g>
<g><path style="opacity:1" fill="#06b3d2" d="M 12.5,32.5 C 13.1653,34.6979 13.8319,37.0312 14.5,39.5C 18.4295,40.4328 22.4295,40.7662 26.5,40.5C 26.4197,46.4754 26.4197,52.142 26.5,57.5C 22.4194,60.0445 18.0861,62.3778 13.5,64.5C 12.5013,53.8541 12.168,43.1874 12.5,32.5 Z"/></g>
<g><path style="opacity:1" fill="#09aac9" d="M 104.5,91.5 C 105.194,86.1951 105.528,80.8617 105.5,75.5C 101.5,75.5 97.5,75.5 93.5,75.5C 93.6621,77.5273 93.4955,79.5273 93,81.5C 92.8272,75.6518 92.3272,69.9851 91.5,64.5C 91.4142,63.5041 91.7476,62.6708 92.5,62C 96.8835,59.6107 101.384,57.444 106,55.5C 106.167,61.5 106.333,67.5 106.5,73.5C 106.496,79.8725 105.829,85.8725 104.5,91.5 Z"/></g>
<g><path style="opacity:1" fill="#caeef2" d="M 91.5,64.5 C 91.8297,70.8682 91.4963,77.2015 90.5,83.5C 89.8933,83.3764 89.56,83.0431 89.5,82.5C 90.1667,76.5 90.8333,70.5 91.5,64.5 Z"/></g>
<g><path style="opacity:1" fill="#12b2d1" d="M 89.5,21.5 C 95.2837,22.7234 100.617,25.0567 105.5,28.5C 106.806,34.0538 106.806,39.5538 105.5,45C 79.4819,57.3424 53.8153,70.1757 28.5,83.5C 32.9986,86.2503 37.6653,88.7503 42.5,91C 37.8864,93.8904 33.0531,96.3904 28,98.5C 23.1056,96.3029 18.2723,93.9696 13.5,91.5C 12.1941,85.9462 12.1941,80.4462 13.5,75C 39.4869,62.6732 65.1536,49.8399 90.5,36.5C 85.9923,33.7455 81.3257,31.2455 76.5,29C 80.8961,26.4731 85.2295,23.9731 89.5,21.5 Z"/></g>
<g><path style="opacity:1" fill="#11b3d2" d="M 91.5,64.5 C 92.3272,69.9851 92.8272,75.6518 93,81.5C 93.4955,79.5273 93.6621,77.5273 93.5,75.5C 97.5,75.5 101.5,75.5 105.5,75.5C 105.528,80.8617 105.194,86.1951 104.5,91.5C 100.434,94.2092 96.1009,96.5425 91.5,98.5C 79.1727,93.0636 67.1727,87.0636 55.5,80.5C 60.376,77.8953 65.376,75.5619 70.5,73.5C 76.6981,76.7655 83.0314,79.7655 89.5,82.5C 89.56,83.0431 89.8933,83.3764 90.5,83.5C 91.4963,77.2015 91.8297,70.8682 91.5,64.5 Z"/></g>
<g><path style="opacity:1" fill="#19aecb" d="M 53.5,96.5 C 57.1717,99.0571 60.8384,99.0571 64.5,96.5C 69.579,98.9106 74.579,101.411 79.5,104C 72.707,107.23 66.0403,110.73 59.5,114.5C 52.7887,111.095 46.122,107.595 39.5,104C 44.2816,101.584 48.9483,99.0838 53.5,96.5 Z"/></g>
</svg>
