<?xml version="1.0" encoding="UTF-8"?>
<!DOCTYPE svg PUBLIC "-//W3C//DTD SVG 1.1//EN" "http://www.w3.org/Graphics/SVG/1.1/DTD/svg11.dtd">
<svg xmlns="http://www.w3.org/2000/svg" version="1.1" width="120px" height="120px" style="shape-rendering:geometricPrecision; text-rendering:geometricPrecision; image-rendering:optimizeQuality; fill-rule:evenodd; clip-rule:evenodd" xmlns:xlink="http://www.w3.org/1999/xlink">
<g><path style="opacity:0.954" fill="#f8f9fa" d="M 48.5,-0.5 C 56.1667,-0.5 63.8333,-0.5 71.5,-0.5C 95.8799,5.54619 111.88,20.5462 119.5,44.5C 119.5,55.1667 119.5,65.8333 119.5,76.5C 113.085,97.249 99.7517,111.582 79.5,119.5C 75.8333,119.5 72.1667,119.5 68.5,119.5C 97.087,113.246 113.087,95.5792 116.5,66.5C 116.167,64.1667 115.833,61.8333 115.5,59.5C 92.356,86.2439 63.0227,101.744 27.5,106C 35.2241,113.195 44.2241,117.695 54.5,119.5C 49.8333,119.5 45.1667,119.5 40.5,119.5C 18.4207,110.668 4.75402,94.6685 -0.5,71.5C -0.5,64.1667 -0.5,56.8333 -0.5,49.5C 5.72719,22.9394 22.0605,6.27272 48.5,-0.5 Z"/></g>
<g><path style="opacity:1" fill="#0c578b" d="M 51.5,1.5 C 81.7682,-0.791338 102.935,11.8753 115,39.5C 116.04,43.5328 115.374,47.1995 113,50.5C 106.708,55.1233 100.708,60.1233 95,65.5C 94.6667,54.5 94.3333,43.5 94,32.5C 93.2155,30.714 92.0488,29.214 90.5,28C 86.5,27.3333 82.5,27.3333 78.5,28C 77.6667,28.8333 76.8333,29.6667 76,30.5C 75.6667,45.5 75.3333,60.5 75,75.5C 73.8261,77.6709 71.9928,78.6709 69.5,78.5C 69.6665,66.4954 69.4999,54.4954 69,42.5C 67.0284,39.1113 64.0284,37.778 60,38.5C 56.4794,38.0832 53.4794,39.0832 51,41.5C 50.6667,55.5 50.3333,69.5 50,83.5C 49.0467,85.4552 47.7134,87.1218 46,88.5C 45.6667,77.1667 45.3333,65.8333 45,54.5C 40.5957,51.6706 35.7624,50.8373 30.5,52C 29.5,52.8333 28.5,53.6667 27.5,54.5C 26.6872,66.1207 26.1872,77.7874 26,89.5C 22.9744,91.2369 19.641,92.2369 16,92.5C 14.3732,92.3749 12.8732,91.8749 11.5,91C -3.2263,61.4591 1.44037,35.4591 25.5,13C 33.4227,7.19926 42.0894,3.36593 51.5,1.5 Z"/></g>
<g><path style="opacity:1" fill="#979694" d="M 68.5,119.5 C 63.8333,119.5 59.1667,119.5 54.5,119.5C 44.2241,117.695 35.2241,113.195 27.5,106C 63.0227,101.744 92.356,86.2439 115.5,59.5C 115.833,61.8333 116.167,64.1667 116.5,66.5C 113.087,95.5792 97.087,113.246 68.5,119.5 Z"/></g>
</svg>
