<?xml version="1.0" encoding="UTF-8"?>
<!DOCTYPE svg PUBLIC "-//W3C//DTD SVG 1.1//EN" "http://www.w3.org/Graphics/SVG/1.1/DTD/svg11.dtd">
<svg xmlns="http://www.w3.org/2000/svg" version="1.1" width="120px" height="120px" style="shape-rendering:geometricPrecision; text-rendering:geometricPrecision; image-rendering:optimizeQuality; fill-rule:evenodd; clip-rule:evenodd" xmlns:xlink="http://www.w3.org/1999/xlink">
<g><path style="opacity:0.979" fill="#fefdfd" d="M 48.5,-0.5 C 56.1667,-0.5 63.8333,-0.5 71.5,-0.5C 95.8799,5.54619 111.88,20.5462 119.5,44.5C 119.5,55.1667 119.5,65.8333 119.5,76.5C 113.085,97.249 99.7517,111.582 79.5,119.5C 66.5,119.5 53.5,119.5 40.5,119.5C 18.4207,110.668 4.75402,94.6685 -0.5,71.5C -0.5,64.1667 -0.5,56.8333 -0.5,49.5C 2.6695,34.6698 10.0028,22.3365 21.5,12.5C 22.1667,12.5 22.5,12.1667 22.5,11.5C 30.4719,5.84519 39.1386,1.84519 48.5,-0.5 Z"/></g>
<g><path style="opacity:0.024" fill="#f2a4c6" d="M 22.5,11.5 C 22.5,12.1667 22.1667,12.5 21.5,12.5C 19.031,9.85615 16.6976,7.02282 14.5,4C 15.1667,3.33333 15.8333,3.33333 16.5,4C 18.3336,6.66327 20.3336,9.16327 22.5,11.5 Z"/></g>
<g><path style="opacity:1" fill="#fd247e" d="M 46.5,27.5 C 48.9032,27.393 50.7365,28.393 52,30.5C 53.5008,34.5058 55.0008,38.5058 56.5,42.5C 56.1667,42.8333 55.8333,43.1667 55.5,43.5C 49.1483,40.158 46.1483,34.8247 46.5,27.5 Z"/></g>
<g><path style="opacity:1" fill="#f98abf" d="M 32.5,33.5 C 30.9153,32.9976 30.4153,31.9976 31,30.5C 32.0386,31.2438 32.5386,32.2438 32.5,33.5 Z"/></g>
<g><path style="opacity:1" fill="#f46aa7" d="M 32.5,33.5 C 33.6737,34.5137 34.3404,35.847 34.5,37.5C 32.8958,36.713 32.2291,35.3797 32.5,33.5 Z"/></g>
<g><path style="opacity:1" fill="#fe1f7d" d="M 84.5,38.5 C 84.5,39.5 84.5,40.5 84.5,41.5C 84.8435,45.1339 83.1768,46.8005 79.5,46.5C 75.0054,46.2801 71.0054,44.7801 67.5,42C 63.1158,34.6157 57.1158,28.949 49.5,25C 55.0372,25.5054 59.3705,28.1721 62.5,33C 67.8292,32.2796 73.1625,32.6129 78.5,34C 80.8593,35.2425 82.8593,36.7425 84.5,38.5 Z"/></g>
<g><path style="opacity:1" fill="#fd4187" d="M 87.5,37.5 C 87.1667,37.5 86.8333,37.5 86.5,37.5C 86.0844,35.2475 84.751,33.7475 82.5,33C 86.743,32.09 88.4097,33.59 87.5,37.5 Z"/></g>
<g><path style="opacity:1" fill="#f59cc6" d="M 86.5,37.5 C 86.8333,37.5 87.1667,37.5 87.5,37.5C 87.5,38.8333 87.5,40.1667 87.5,41.5C 86.5,41.5 85.5,41.5 84.5,41.5C 84.5,40.5 84.5,39.5 84.5,38.5C 85.9665,41.2583 86.6332,40.925 86.5,37.5 Z"/></g>
<g><path style="opacity:1" fill="#fd4189" d="M 88.5,42.5 C 91.8622,44.5564 93.6956,47.5564 94,51.5C 92.238,48.732 89.738,47.232 86.5,47C 87.5822,45.6703 88.2488,44.1703 88.5,42.5 Z"/></g>
<g><path style="opacity:1" fill="#fe1c7d" d="M 69.5,46.5 C 70.6828,47.5045 72.0161,48.3378 73.5,49C 80.9354,49.6313 87.9354,51.6313 94.5,55C 99.6239,60.3736 100.791,66.5402 98,73.5C 97.2689,71.1013 96.1022,68.9347 94.5,67C 87.0791,63.5252 79.7458,59.8586 72.5,56C 70.2051,53.2432 69.2051,50.0765 69.5,46.5 Z"/></g>
<g><path style="opacity:1" fill="#fd4286" d="M 50.5,51.5 C 52.0888,54.0916 53.7555,54.0916 55.5,51.5C 56.4519,53.0453 56.7852,54.712 56.5,56.5C 53.8333,56.5 51.1667,56.5 48.5,56.5C 48.3915,54.4862 49.0582,52.8195 50.5,51.5 Z"/></g>
<g><path style="opacity:1" fill="#fe1e7d" d="M 34.5,37.5 C 36.636,39.8123 38.636,42.3123 40.5,45C 42.2588,45.7975 43.9255,45.6309 45.5,44.5C 37.9698,34.1849 30.8032,23.8516 24,13.5C 32.3333,22.8333 40.6667,32.1667 49,41.5C 49.8959,44.025 49.3959,46.1917 47.5,48C 44.5571,48.9417 41.7238,50.1084 39,51.5C 38.5008,57.3226 37.0008,62.8226 34.5,68C 35.4833,72.3217 37.9833,75.4883 42,77.5C 42.8952,80.4663 42.3952,83.1329 40.5,85.5C 37.5061,87.247 34.3394,88.5804 31,89.5C 24.6409,83.7753 23.3076,77.1087 27,69.5C 32.0814,65.0025 34.748,59.3358 35,52.5C 36.0468,50.2379 37.2135,48.0712 38.5,46C 36.921,43.2628 35.5877,40.4295 34.5,37.5 Z"/></g>
<g><path style="opacity:1" fill="#fe197c" d="M 79.5,63.5 C 84.8643,65.6011 89.6977,68.6011 94,72.5C 98.3305,81.179 96.6639,88.5123 89,94.5C 89.4559,91.5716 89.4559,88.5716 89,85.5C 86.5841,80.9994 83.9175,76.6661 81,72.5C 79.8512,69.6074 79.3512,66.6074 79.5,63.5 Z"/></g>
<g><path style="opacity:1" fill="#fc488d" d="M 75.5,62.5 C 78.5436,67.3319 77.5436,71.4986 72.5,75C 68.2388,76.3626 63.9054,76.6959 59.5,76C 63.5396,75.0913 67.5396,74.0913 71.5,73C 75.0482,70.4093 76.3815,66.9093 75.5,62.5 Z"/></g>
<g><path style="opacity:1" fill="#f4dae6" d="M 28.5,74.5 C 31.8606,75.2032 32.1939,76.5365 29.5,78.5C 28.5713,77.3112 28.238,75.9778 28.5,74.5 Z"/></g>
<g><path style="opacity:1" fill="#fd207d" d="M 74.5,100.5 C 74.5,101.167 74.1667,101.5 73.5,101.5C 69.3433,99.5647 66.8433,96.2314 66,91.5C 63.5881,88.208 60.4214,87.0413 56.5,88C 53.179,92.836 54.5123,95.336 60.5,95.5C 60.5,95.8333 60.5,96.1667 60.5,96.5C 59.2618,97.4124 57.9285,97.5791 56.5,97C 53.8723,95.3745 51.539,93.3745 49.5,91C 47.1667,90 44.8333,89 42.5,88C 48.1314,82.516 54.798,80.516 62.5,82C 68.6953,85.2028 71.5286,90.3695 71,97.5C 71.4224,99.4257 72.5891,100.426 74.5,100.5 Z"/></g>
<g><path style="opacity:1" fill="#ef7eb1" d="M 60.5,96.5 C 60.5,96.1667 60.5,95.8333 60.5,95.5C 61.0283,94.1526 61.195,92.8193 61,91.5C 59.3476,90.783 57.8476,90.4496 56.5,90.5C 58.2358,87.8953 60.0692,87.8953 62,90.5C 62.7385,92.8805 62.2385,94.8805 60.5,96.5 Z"/></g>
<g><path style="opacity:1" fill="#f986bd" d="M 74.5,100.5 C 80.3239,100.347 80.6572,101.013 75.5,102.5C 74.5836,102.457 73.9169,102.124 73.5,101.5C 74.1667,101.5 74.5,101.167 74.5,100.5 Z"/></g>
</svg>
